<svg width="14" height="14" viewBox="0 0 14 14" fill="none" xmlns="http://www.w3.org/2000/svg">
<path fill-rule="evenodd" clip-rule="evenodd" d="M2.68717 1.96377H1.75747V0.36377H4.67414H5.47414V1.16377V4.08044H3.87414V3.0586C3.63956 3.24449 3.42136 3.45147 3.22243 3.67742C2.73405 4.23215 2.37383 4.88762 2.16735 5.59728C1.96088 6.30693 1.91322 7.05335 2.02776 7.7835C2.1423 8.51365 2.41623 9.20961 2.8301 9.82195C3.24396 10.4343 3.7876 10.948 4.42238 11.3265C5.05717 11.705 5.76753 11.9391 6.503 12.0121C7.23846 12.0852 7.98098 11.9953 8.67781 11.749C9.37463 11.5027 10.0087 11.1059 10.5348 10.5869L11.6584 11.726C10.965 12.41 10.1294 12.9329 9.21106 13.2575C8.29273 13.5821 7.31417 13.7005 6.34492 13.6043C5.37567 13.5081 4.4395 13.1996 3.60292 12.7007C2.76635 12.2019 2.0499 11.5249 1.50448 10.7179C0.959055 9.91092 0.598043 8.99372 0.44709 8.03146C0.296137 7.06921 0.358946 6.08553 0.631057 5.15029C0.903168 4.21505 1.3779 3.35121 2.02153 2.62015C2.22824 2.38535 2.45075 2.16611 2.68717 1.96377ZM11.5601 2.17624C10.832 1.4845 9.955 0.968776 8.99654 0.668637L8.5184 2.19552C9.24362 2.42262 9.90718 2.81285 10.4581 3.33626L11.5601 2.17624ZM12.036 7.24829C11.9985 7.98716 11.7976 8.70852 11.4476 9.36033L12.8573 10.1172C13.3192 9.2568 13.5845 8.30458 13.6339 7.32925L12.036 7.24829ZM13.5623 6.00585C13.4126 4.98659 13.0227 4.01752 12.4248 3.17861L11.1219 4.10726C11.5726 4.73961 11.8665 5.47007 11.9793 6.23836L13.5623 6.00585ZM6.20747 6.9971V4.08044H7.80747V6.66573L9.61482 8.47308L8.48345 9.60445L6.44178 7.56279L6.20747 7.32847V6.9971Z" fill="#1E74FD"/>
</svg>
