<svg width="12" height="12" viewBox="0 0 12 12" fill="none" xmlns="http://www.w3.org/2000/svg">
<path d="M1.27811 12H10.7219C11.1195 12 11.432 11.9159 11.6592 11.7478C11.8864 11.5841 12 11.354 12 11.0575C12 10.6372 11.8604 10.1903 11.5811 9.71681C11.3018 9.24336 10.8994 8.8031 10.374 8.39602C9.85325 7.98451 9.22367 7.65044 8.48521 7.39381C7.74675 7.13274 6.91598 7.00221 5.9929 7.00221C5.07456 7.00221 4.24615 7.13274 3.50769 7.39381C2.76923 7.65044 2.13728 7.98451 1.61183 8.39602C1.09112 8.8031 0.691124 9.24336 0.411834 9.71681C0.137278 10.1903 0 10.6372 0 11.0575C0 11.354 0.113609 11.5841 0.340828 11.7478C0.568047 11.9159 0.880473 12 1.27811 12ZM6 5.82743C6.51598 5.82743 6.99172 5.6969 7.42722 5.43584C7.86272 5.17478 8.21065 4.82301 8.47101 4.38053C8.73609 3.93363 8.86864 3.43142 8.86864 2.87389C8.86864 2.33407 8.73609 1.84735 8.47101 1.41372C8.21065 0.975664 7.86272 0.630531 7.42722 0.378319C6.99172 0.126106 6.51598 0 6 0C5.48876 0 5.01538 0.128319 4.57988 0.384956C4.14438 0.641593 3.79408 0.988938 3.52899 1.42699C3.26864 1.86062 3.13846 2.34735 3.13846 2.88717C3.13846 3.44027 3.26864 3.93805 3.52899 4.38053C3.79408 4.82301 4.14201 5.17478 4.57278 5.43584C5.00828 5.6969 5.48402 5.82743 6 5.82743Z" fill="#1E74FD"/>
</svg>
