<svg width="18" height="18" viewBox="0 0 18 18" fill="none" xmlns="http://www.w3.org/2000/svg">
<path d="M12.3263 18H16.7383C17.1257 18 17.4316 17.8593 17.6559 17.5779C17.8853 17.3021 18 16.9306 18 16.4634V5.69043C18 5.22326 17.8853 4.85178 17.6559 4.57598C17.4316 4.29456 17.1257 4.15385 16.7383 4.15385H12.7009V16.4634C12.7009 16.7505 12.6678 17.0206 12.6015 17.2739C12.5404 17.5328 12.4486 17.7749 12.3263 18ZM14.4367 8.42589V7.07505C14.4367 6.87805 14.5259 6.77955 14.7043 6.77955H15.9737C16.1521 6.77955 16.2413 6.87805 16.2413 7.07505V8.42589C16.2413 8.62852 16.1521 8.72983 15.9737 8.72983H14.7043C14.5259 8.72983 14.4367 8.62852 14.4367 8.42589ZM14.4367 11.7523V10.4015C14.4367 10.2045 14.5259 10.106 14.7043 10.106H15.9737C16.1521 10.106 16.2413 10.2045 16.2413 10.4015V11.7523C16.2413 11.9493 16.1521 12.0478 15.9737 12.0478H14.7043C14.5259 12.0478 14.4367 11.9493 14.4367 11.7523ZM14.4367 15.0788V13.728C14.4367 13.5253 14.5259 13.424 14.7043 13.424H15.9737C16.1521 13.424 16.2413 13.5253 16.2413 13.728V15.0788C16.2413 15.2758 16.1521 15.3743 15.9737 15.3743H14.7043C14.5259 15.3743 14.4367 15.2758 14.4367 15.0788ZM0 16.4634C0 16.9306 0.11215 17.3021 0.336449 17.5779C0.565845 17.8593 0.876805 18 1.26933 18H10.384C10.7766 18 11.085 17.8593 11.3093 17.5779C11.5387 17.3021 11.6534 16.9306 11.6534 16.4634V1.53659C11.6534 1.06379 11.5387 0.689493 11.3093 0.413696C11.085 0.137899 10.7766 0 10.384 0H1.26933C0.876805 0 0.565845 0.137899 0.336449 0.413696C0.11215 0.689493 0 1.06379 0 1.53659V16.4634ZM3.18097 16.6407V13.8968C3.18097 13.6998 3.23449 13.545 3.34155 13.4325C3.4486 13.3143 3.58879 13.2552 3.76211 13.2552H7.96007C8.13849 13.2552 8.27867 13.3143 8.38063 13.4325C8.48768 13.545 8.54121 13.6998 8.54121 13.8968V16.6407H3.18097ZM2.92863 4.53377V2.89587C2.92863 2.65385 3.03314 2.53283 3.24214 2.53283H4.77145C4.99065 2.53283 5.10025 2.65385 5.10025 2.89587V4.53377C5.10025 4.7758 4.99065 4.89681 4.77145 4.89681H3.24214C3.03314 4.89681 2.92863 4.7758 2.92863 4.53377ZM6.62192 4.53377V2.89587C6.62192 2.65385 6.72897 2.53283 6.94308 2.53283H8.46474C8.68394 2.53283 8.79354 2.65385 8.79354 2.89587V4.53377C8.79354 4.7758 8.68394 4.89681 8.46474 4.89681H6.94308C6.72897 4.89681 6.62192 4.7758 6.62192 4.53377ZM2.92863 7.97842V6.34052C2.92863 6.0985 3.03314 5.97749 3.24214 5.97749H4.77145C4.99065 5.97749 5.10025 6.0985 5.10025 6.34052V7.97842C5.10025 8.22045 4.99065 8.34146 4.77145 8.34146H3.24214C3.03314 8.34146 2.92863 8.22045 2.92863 7.97842ZM6.62192 7.97842V6.34052C6.62192 6.0985 6.72897 5.97749 6.94308 5.97749H8.46474C8.68394 5.97749 8.79354 6.0985 8.79354 6.34052V7.97842C8.79354 8.22045 8.68394 8.34146 8.46474 8.34146H6.94308C6.72897 8.34146 6.62192 8.22045 6.62192 7.97842ZM2.92863 11.4231V9.78518C2.92863 9.54315 3.03314 9.42214 3.24214 9.42214H4.77145C4.99065 9.42214 5.10025 9.54315 5.10025 9.78518V11.4231C5.10025 11.6651 4.99065 11.7861 4.77145 11.7861H3.24214C3.03314 11.7861 2.92863 11.6651 2.92863 11.4231ZM6.62192 11.4231V9.78518C6.62192 9.54315 6.72897 9.42214 6.94308 9.42214H8.46474C8.68394 9.42214 8.79354 9.54315 8.79354 9.78518V11.4231C8.79354 11.6651 8.68394 11.7861 8.46474 11.7861H6.94308C6.72897 11.7861 6.62192 11.6651 6.62192 11.4231Z" fill="#1E74FD"/>
</svg>
