<svg width="14" height="14" viewBox="0 0 14 14" fill="none" xmlns="http://www.w3.org/2000/svg">
<path fill-rule="evenodd" clip-rule="evenodd" d="M7.00003 1.9667C4.2202 1.9667 1.9667 4.2202 1.9667 7.00003C1.9667 9.77987 4.2202 12.0334 7.00003 12.0334C9.77987 12.0334 12.0334 9.77987 12.0334 7.00003C12.0334 4.2202 9.77987 1.9667 7.00003 1.9667ZM0.366699 7.00003C0.366699 3.33654 3.33654 0.366699 7.00003 0.366699C10.6635 0.366699 13.6334 3.33654 13.6334 7.00003C13.6334 10.6635 10.6635 13.6334 7.00003 13.6334C3.33654 13.6334 0.366699 10.6635 0.366699 7.00003ZM6.20003 7.64176V4.14176H7.80003V7.64176H6.20003ZM7.7292 9.10009C7.7292 9.5028 7.40274 9.82926 7.00003 9.82926C6.59732 9.82926 6.27087 9.5028 6.27087 9.10009C6.27087 8.69738 6.59732 8.37092 7.00003 8.37092C7.40274 8.37092 7.7292 8.69738 7.7292 9.10009Z" fill="#EC4433"/>
</svg>
